<svg id="svg" xmlns="http://www.w3.org/2000/svg" viewBox="0,0,400,400" version="1.1">
    <circle cx="50%" cy="50%" r="200" fill="white"/>
    <g id="svgg">
        <path id="path0"
              d="M158.641 54.341 C 146.961 56.314,137.960 65.284,135.947 76.955 C 135.663 78.599,135.550 84.317,135.626 93.195 L 135.742 106.898 136.868 108.373 C 138.424 110.413,140.139 111.047,143.619 110.872 C 146.290 110.737,146.445 110.774,146.296 111.517 C 146.210 111.950,146.030 114.023,145.897 116.123 C 145.764 118.223,145.585 120.302,145.500 120.743 C 145.415 121.185,145.163 122.855,144.941 124.456 C 143.781 132.797,141.067 141.849,131.273 170.055 C 115.952 214.176,110.718 232.819,107.587 254.424 C 103.307 283.951,109.452 308.009,124.930 322.319 L 127.734 324.912 127.734 330.801 C 127.734 339.236,129.253 342.509,134.328 345.009 L 136.133 345.898 199.219 346.001 C 270.534 346.117,264.779 346.367,268.357 343.007 C 271.378 340.171,271.984 338.368,272.178 331.641 L 272.341 325.977 274.777 323.438 C 284.290 313.522,290.078 302.005,292.363 288.445 C 294.082 278.247,294.094 268.412,292.405 255.859 C 290.303 240.242,286.537 224.605,279.280 201.367 C 276.557 192.648,275.756 190.260,269.718 172.852 C 257.390 137.315,255.083 128.697,254.080 114.448 L 253.818 110.732 256.890 110.868 C 260.421 111.023,262.000 110.288,263.455 107.811 C 264.578 105.900,264.895 81.127,263.862 76.029 C 261.871 66.204,255.231 58.866,245.136 55.337 L 241.602 54.102 201.172 54.043 C 178.410 54.011,159.824 54.141,158.641 54.341 M173.203 72.810 C 176.433 74.160,177.979 78.867,176.100 81.631 C 171.906 87.800,162.304 83.972,164.402 76.968 C 165.577 73.049,169.424 71.231,173.203 72.810 M202.460 72.793 C 207.261 74.799,207.688 81.656,203.156 83.969 C 198.998 86.090,194.337 83.842,193.845 79.480 C 193.278 74.446,197.875 70.878,202.460 72.793 M233.122 73.312 C 238.338 77.175,235.938 84.741,229.492 84.758 C 223.851 84.772,221.096 78.183,225.077 74.202 C 227.228 72.051,230.875 71.648,233.122 73.312 M237.809 118.652 C 238.619 130.244,239.614 133.919,252.918 174.414 C 266.086 214.495,268.755 223.411,272.624 240.234 C 283.884 289.207,273.454 319.295,244.181 322.285 C 236.612 323.058,168.709 322.598,165.820 321.754 C 152.972 318.000,146.911 309.952,147.389 297.277 C 148.284 273.520,160.357 259.229,196.484 239.162 C 235.836 217.303,245.697 198.340,234.775 165.531 C 231.737 156.406,232.125 156.493,228.233 164.063 C 221.756 176.660,211.252 191.671,205.407 196.682 C 204.904 197.114,203.255 198.528,201.743 199.825 C 198.298 202.781,194.245 205.470,185.547 210.572 C 162.996 223.800,148.407 236.778,141.883 249.414 C 140.007 253.049,139.913 252.615,141.204 246.268 C 144.684 229.162,146.421 225.956,159.364 212.749 C 168.538 203.388,174.049 198.689,185.547 190.423 C 194.195 184.206,196.468 182.355,200.464 178.272 C 216.119 162.278,219.969 145.113,211.680 128.265 C 208.864 122.539,208.080 122.563,206.301 128.431 C 202.074 142.372,194.444 151.527,177.725 162.721 C 161.671 173.469,149.335 185.932,140.336 200.494 C 138.339 203.725,138.375 203.555,142.029 192.371 C 155.058 152.501,158.629 140.393,160.518 129.688 C 161.602 123.539,161.690 122.778,161.974 117.090 L 162.222 112.109 199.787 112.109 L 237.352 112.109 237.809 118.652 M219.264 249.790 C 217.496 250.559,218.112 249.101,206.051 281.055 C 194.804 310.854,195.666 308.161,196.686 310.310 C 198.539 314.215,204.745 313.553,206.137 309.301 C 206.370 308.590,211.061 296.068,216.562 281.474 C 222.062 266.880,226.563 254.514,226.563 253.994 C 226.563 250.389,222.830 248.239,219.264 249.790 M232.588 258.162 C 231.512 258.651,230.783 259.332,230.341 260.263 C 228.826 263.458,229.306 264.226,238.721 273.667 L 246.936 281.904 238.470 290.073 C 228.139 300.041,227.154 301.764,229.911 305.041 C 232.973 308.680,235.056 307.792,244.638 298.764 C 263.697 280.807,263.349 283.510,248.506 268.697 C 236.558 256.773,236.187 256.527,232.588 258.162 M187.695 258.859 C 187.051 259.202,185.818 260.118,184.955 260.894 C 184.092 261.670,182.342 263.184,181.064 264.258 C 166.915 276.157,163.197 280.352,163.825 283.702 C 164.150 285.433,183.412 304.838,185.922 305.963 C 190.295 307.923,195.143 303.028,192.857 298.961 C 192.596 298.496,188.875 294.476,184.587 290.027 L 176.790 281.938 177.968 280.910 C 178.615 280.345,182.387 277.099,186.350 273.697 C 194.647 266.573,195.313 265.797,195.313 263.247 C 195.313 259.416,191.151 257.018,187.695 258.859"
              stroke="none"
              fill="#f3791b"
              fill-rule="evenodd">
        </path>
    </g>
</svg>